<svg width="32" height="32" viewBox="0 0 32 32" fill="none" xmlns="http://www.w3.org/2000/svg">
<g clip-path="url(#clip0_1751_7885)">
<path d="M16 32C24.8366 32 32 24.8366 32 16C32 7.16344 24.8366 0 16 0C7.16344 0 0 7.16344 0 16C0 24.8366 7.16344 32 16 32Z" fill="url(#paint0_linear_1751_7885)"/>
<path d="M17.5491 9.39992C17.3791 9.45992 17.2691 9.62992 17.2691 9.80992C17.2691 9.98992 17.3791 10.1599 17.5491 10.2199L19.3391 10.8899C19.5691 10.9799 19.7491 11.1599 19.8291 11.3799L20.4991 13.1699C20.5591 13.3399 20.7291 13.4499 20.9091 13.4499C21.0891 13.4499 21.2591 13.3399 21.3191 13.1699L21.9891 11.3799C22.0791 11.1499 22.2591 10.9699 22.4791 10.8899L24.2691 10.2199C24.4391 10.1599 24.5491 9.98992 24.5491 9.80992C24.5491 9.62992 24.4391 9.45992 24.2691 9.39992L22.4791 8.72992C22.2491 8.63992 22.0691 8.45992 21.9891 8.23992L21.3191 6.44992C21.2591 6.27992 21.0891 6.16992 20.9091 6.16992C20.7291 6.16992 20.5591 6.27992 20.4991 6.44992L19.8291 8.23992C19.7391 8.46992 19.5591 8.64992 19.3391 8.72992L17.5491 9.39992ZM5.46914 15.2799C5.24914 15.3799 5.11914 15.5999 5.11914 15.8299C5.11914 16.0599 5.25914 16.2799 5.46914 16.3799L6.11914 16.6799L6.42914 16.8199H6.44914L9.51914 18.2499C9.69914 18.3299 9.84914 18.4799 9.92914 18.6599L11.3491 21.7299V21.7499L11.4991 22.0599L11.7991 22.7099C11.8991 22.9299 12.1191 23.0599 12.3491 23.0599C12.5791 23.0599 12.7991 22.9199 12.8991 22.7099L13.1991 22.0599L13.3391 21.7499V21.7299L14.7691 18.6599C14.8491 18.4799 14.9991 18.3299 15.1791 18.2499L18.2491 16.8299H18.2691L18.5791 16.6799L19.2291 16.3799C19.4491 16.2799 19.5791 16.0599 19.5791 15.8299C19.5791 15.5999 19.4391 15.3799 19.2291 15.2799L18.5791 14.9799L18.2691 14.8399H18.2491L15.1791 13.4099C14.9991 13.3299 14.8491 13.1799 14.7691 12.9999L13.3491 9.92992V9.90992L13.1991 9.59992L12.8991 8.94992C12.7991 8.72992 12.5791 8.59992 12.3491 8.59992C12.1191 8.59992 11.8991 8.73992 11.7991 8.94992L11.4991 9.59992L11.3591 9.90992V9.92992L9.92914 12.9999C9.84914 13.1799 9.69914 13.3299 9.51914 13.4099L6.44914 14.8299H6.42914L6.11914 14.9799L5.46914 15.2799ZM8.61914 15.8299L10.2791 15.0599C10.8591 14.7899 11.3191 14.3299 11.5891 13.7499C11.8891 13.0999 12.8191 13.0999 13.1191 13.7499C13.3891 14.3299 13.8491 14.7899 14.4291 15.0599C15.0791 15.3599 15.0791 16.2899 14.4291 16.5899C13.8491 16.8599 13.3891 17.3199 13.1191 17.8999C12.8191 18.5499 11.8891 18.5499 11.5891 17.8999C11.3191 17.3199 10.8591 16.8599 10.2791 16.5899L8.61914 15.8299ZM19.8291 20.3899C19.7391 20.6199 19.5591 20.7999 19.3391 20.8799L17.5491 21.5499C17.3791 21.6099 17.2691 21.7799 17.2691 21.9599C17.2691 22.1399 17.3791 22.3099 17.5491 22.3699L19.3391 23.0399C19.5691 23.1299 19.7491 23.3099 19.8291 23.5299L20.4991 25.3199C20.5591 25.4899 20.7291 25.5999 20.9091 25.5999C21.0891 25.5999 21.2591 25.4899 21.3191 25.3199L21.9891 23.5299C22.0791 23.2999 22.2591 23.1199 22.4791 23.0399L24.2691 22.3699C24.4391 22.3099 24.5491 22.1399 24.5491 21.9599C24.5491 21.7799 24.4391 21.6099 24.2691 21.5499L22.4791 20.8799C22.2491 20.7899 22.0691 20.6099 21.9891 20.3899L21.3191 18.5999C21.2591 18.4299 21.0891 18.3199 20.9091 18.3199C20.7291 18.3199 20.5591 18.4299 20.4991 18.5999L19.8291 20.3899Z" fill="white"/>
</g>
<defs>
<linearGradient id="paint0_linear_1751_7885" x1="16" y1="0" x2="16" y2="29.5" gradientUnits="userSpaceOnUse">
<stop stop-color="#360140"/>
<stop offset="0.2" stop-color="#480A54"/>
<stop offset="0.45" stop-color="#5A1366"/>
<stop offset="0.72" stop-color="#651972"/>
<stop offset="1" stop-color="#691B76"/>
</linearGradient>
<clipPath id="clip0_1751_7885">
<rect width="32" height="32" fill="white"/>
</clipPath>
</defs>
</svg>
