<svg width="17" height="16" viewBox="0 0 17 16" fill="none" xmlns="http://www.w3.org/2000/svg">
<path fill-rule="evenodd" clip-rule="evenodd" d="M13.1311 6H12.6311C12.3549 6 12.1311 6.22375 12.1311 6.5V8C12.1311 10.3375 10.1158 12.2131 7.73142 11.9806C5.65329 11.7778 4.1311 9.90969 4.1311 7.82187V6.5C4.1311 6.22375 3.90735 6 3.6311 6H3.1311C2.85485 6 2.6311 6.22375 2.6311 6.5V7.755C2.6311 10.5563 4.63017 13.0534 7.3811 13.4328V14.5H5.6311C5.35485 14.5 5.1311 14.7238 5.1311 15V15.5C5.1311 15.7763 5.35485 16 5.6311 16H10.6311C10.9074 16 11.1311 15.7763 11.1311 15.5V15C11.1311 14.7238 10.9074 14.5 10.6311 14.5H8.8811V13.4447C11.5595 13.0772 13.6311 10.7781 13.6311 8V6.5C13.6311 6.22375 13.4074 6 13.1311 6ZM8.1311 11C9.78798 11 11.1311 9.65688 11.1311 8V3C11.1311 1.34313 9.78798 0 8.1311 0C6.47423 0 5.1311 1.34313 5.1311 3V8C5.1311 9.65688 6.47423 11 8.1311 11ZM6.6311 3C6.6311 2.17281 7.30392 1.5 8.1311 1.5C8.95829 1.5 9.6311 2.17281 9.6311 3V8C9.6311 8.82719 8.95829 9.5 8.1311 9.5C7.30392 9.5 6.6311 8.82719 6.6311 8V3Z" fill="#5B5E65"/>
</svg>
