<svg width="17" height="16" viewBox="0 0 17 16" fill="none" xmlns="http://www.w3.org/2000/svg">
<path fill-rule="evenodd" clip-rule="evenodd" d="M13.1309 6H12.6309C12.3546 6 12.1309 6.22375 12.1309 6.5V8C12.1309 10.3375 10.1155 12.2131 7.73117 11.9806C5.65305 11.7778 4.13086 9.90969 4.13086 7.82187V6.5C4.13086 6.22375 3.90711 6 3.63086 6H3.13086C2.85461 6 2.63086 6.22375 2.63086 6.5V7.755C2.63086 10.5563 4.62992 13.0534 7.38086 13.4328V14.5H5.63086C5.35461 14.5 5.13086 14.7238 5.13086 15V15.5C5.13086 15.7763 5.35461 16 5.63086 16H10.6309C10.9071 16 11.1309 15.7763 11.1309 15.5V15C11.1309 14.7238 10.9071 14.5 10.6309 14.5H8.88086V13.4447C11.5593 13.0772 13.6309 10.7781 13.6309 8V6.5C13.6309 6.22375 13.4071 6 13.1309 6ZM8.13086 11C9.78773 11 11.1309 9.65688 11.1309 8V3C11.1309 1.34313 9.78773 0 8.13086 0C6.47398 0 5.13086 1.34313 5.13086 3V8C5.13086 9.65688 6.47398 11 8.13086 11ZM6.63086 3C6.63086 2.17281 7.30367 1.5 8.13086 1.5C8.95805 1.5 9.63086 2.17281 9.63086 3V8C9.63086 8.82719 8.95805 9.5 8.13086 9.5C7.30367 9.5 6.63086 8.82719 6.63086 8V3Z" fill="#FFFFFF"/>
</svg>
